Coordinates
version=1
nRows=6
nColumns=36
inDegrees=yes

Units are S.I. units (second, meters, Newtons, ...)
If the header above contains a line with 'inDegrees', this indicates whether rotational values are in degrees (yes) or radians (no).

endheader
time	pelvis_tilt	pelvis_list	pelvis_rotation	pelvis_tx	pelvis_ty	pelvis_tz	hip_flexion_r	hip_adduction_r	hip_rotation_r	knee_angle_r	knee_angle_r_beta	ankle_angle_r	subtalar_angle_r	mtp_angle_r	hip_flexion_l	hip_adduction_l	hip_rotation_l	knee_angle_l	knee_angle_l_beta	ankle_angle_l	subtalar_angle_l	mtp_angle_l	lumbar_extension	lumbar_bending	lumbar_rotation	arm_flex_r	arm_add_r	arm_rot_r	elbow_flex_r	pro_sup_r	arm_flex_l	arm_add_l	arm_rot_l	elbow_flex_l	pro_sup_l
      0.96666670	    -19.29672857	      1.92163177	     -3.31674600	      0.19193537	      0.76458009	     -0.09403478	     60.54546240	    -12.01368288	     -2.23588116	     65.09175405	      1.13606542	     20.36113073	      0.80172398	     -7.49999904	     61.87052475	     -5.69391042	     -2.13159667	     67.63978386	      1.18053693	     15.96935798	    -11.19300030	     -7.49999904	    -13.51351941	      3.17090023	      1.98467717	     33.24809448	    -37.57832995	     -3.13150801	    129.15427730	     88.71166687	     44.08788833	    -14.61373930	      9.91627527	    126.47740802	     82.89046556
      0.97083330	    -19.22529706	      2.00484265	     -3.11708570	      0.20128913	      0.77263161	     -0.08624380	     58.95910098	    -11.57568379	     -2.50561876	     63.34428653	      1.10556636	     20.00265998	      0.67990070	     -7.49999906	     59.93037792	     -6.44552271	     -3.06050249	     65.27517845	      1.13926678	     15.82692522	     -9.36956136	     -7.49999906	    -12.09724142	      2.70727478	      1.74525002	     32.42213478	    -36.06562959	     -3.54099480	    131.98119802	     88.99281160	     43.55571334	    -16.07177860	      9.41001988	    127.97515899	     83.34926440
      0.97500000	    -19.15019464	      2.01377311	     -2.91906488	      0.20507651	      0.77629058	     -0.09058534	     57.56790494	    -11.55400934	     -2.78027719	     62.17565049	      1.08516982	     19.57230933	      0.46154638	     -7.49999908	     58.51374844	     -6.86678298	     -3.88422375	     63.70332862	      1.11183283	     15.76889690	     -8.18729412	     -7.49999908	    -10.58795861	      2.37862962	      1.71377886	     32.48978237	    -34.95182259	     -2.46533632	    134.27797661	     89.40448051	     44.32925049	    -16.83898541	     10.05816046	    128.02148588	     83.81588853
      0.97916670	    -19.16971887	      1.92736727	     -2.88399916	      0.20969388	      0.78387440	     -0.08725174	     56.29639967	    -11.30277148	     -3.20802189	     60.80275947	      1.06120835	     19.18073292	      0.14264831	     -7.49999909	     57.17924523	     -7.36980304	     -4.55985517	     62.12407690	      1.08426969	     15.20544779	     -7.38742983	     -7.49999909	     -8.88944082	      2.16389076	      1.75979656	     32.41498932	    -34.15425657	     -1.98248623	    135.83511581	     89.50392308	     45.24015720	    -17.92624380	     10.32800817	    128.03523014	     83.96178824
      0.98333330	    -19.20392041	      1.90557956	     -2.86876451	      0.21041723	      0.79423457	     -0.08827749	     55.10917683	    -11.13267106	     -3.57853969	     59.05414273	      1.03068923	     18.58119707	      0.37212172	     -7.49999903	     55.84060459	     -7.74818317	     -5.47049621	     60.20457842	      1.05076812	     14.77230555	     -6.40267047	     -7.49999903	     -8.07430219	      1.84322586	      1.65868372	     33.00541336	    -34.70426664	     -1.72311354	    137.76774397	     89.41789911	     46.07101270	    -19.12510241	     10.97642538	    128.97993492	     83.95252725
      0.98750000	    -19.21608098	      1.82182111	     -3.04232673	      0.21125414	      0.80097953	     -0.08865518	     54.06757863	    -10.89078253	     -4.09310856	     57.20516160	      0.99841842	     17.55083987	      0.59548595	     -7.49999904	     54.83158879	     -8.00717092	     -5.98790783	     58.72794334	      1.02499597	     13.88603679	     -5.81700419	     -7.49999904	     -6.82144151	      1.52723342	      2.15965221	     33.51749263	    -35.01626655	     -1.42919558	    138.39356711	     89.61847025	     47.29621407	    -19.64918046	     11.41242272	    129.33776311	     84.23564825
